<svg viewBox="0 0 64 64" fill="none" xmlns="http://www.w3.org/2000/svg">
  <defs>
    <linearGradient id="chatGradient" x1="0%" y1="0%" x2="100%" y2="100%">
      <stop offset="0%" stop-color="#ff8a00"/>
      <stop offset="100%" stop-color="#e52e71"/>
    </linearGradient>
    <filter id="chatShadow" x="-10%" y="-10%" width="120%" height="120%">
      <feGaussianBlur in="SourceAlpha" stdDeviation="3" result="blur"/>
      <feOffset in="blur" dx="3" dy="3" result="offsetBlur"/>
      <feMerge>
        <feMergeNode in="offsetBlur"/>
        <feMergeNode in="SourceGraphic"/>
      </feMerge>
    </filter>
  </defs>
  <circle cx="32" cy="32" r="28" fill="url(#chatGradient)" filter="url(#chatShadow)"/>
  <path d="M20 40H17C15.895 40 15 39.105 15 38V15C15 13.895 15.895 13 17 13H47C48.105 13 49 13.895 49 15V38C49 39.105 48.105 40 47 40H31L20 50V40Z" fill="white"/>
  <path d="M34 28H24V24H34V28ZM40 34H24V30H40V34ZM28 22H24V18H28V22Z" fill="#4da9ff"/>
</svg>
